<svg width="28" height="24" viewBox="0 0 28 24" fill="none" xmlns="http://www.w3.org/2000/svg">
<path d="M13.6288 6.04886L4.66704 13.9528V22.4835C4.66704 22.7044 4.74897 22.9162 4.89482 23.0724C5.04067 23.2286 5.23849 23.3163 5.44475 23.3163L10.8917 23.3012C11.0973 23.3001 11.2941 23.2119 11.4391 23.0558C11.5841 22.8998 11.6655 22.6886 11.6655 22.4684V17.4866C11.6655 17.2657 11.7475 17.0539 11.8933 16.8977C12.0392 16.7415 12.237 16.6538 12.4432 16.6538H15.5541C15.7604 16.6538 15.9582 16.7415 16.104 16.8977C16.2499 17.0539 16.3318 17.2657 16.3318 17.4866V22.4648C16.3315 22.5743 16.3514 22.6829 16.3903 22.7843C16.4293 22.8856 16.4865 22.9777 16.5588 23.0553C16.631 23.1329 16.7169 23.1945 16.8114 23.2365C16.9059 23.2786 17.0072 23.3002 17.1096 23.3002L22.5545 23.3163C22.7608 23.3163 22.9586 23.2286 23.1045 23.0724C23.2503 22.9162 23.3323 22.7044 23.3323 22.4835V13.9471L14.3725 6.04886C14.2671 5.95794 14.1359 5.90836 14.0006 5.90836C13.8653 5.90836 13.7341 5.95794 13.6288 6.04886ZM27.7847 11.4211L23.7211 7.83422V0.624614C23.7211 0.458956 23.6597 0.300083 23.5503 0.182945C23.4409 0.0658075 23.2925 0 23.1378 0H20.4158C20.2611 0 20.1128 0.0658075 20.0034 0.182945C19.894 0.300083 19.8325 0.458956 19.8325 0.624614V4.40405L15.4807 0.56996C15.0631 0.201948 14.539 0.000735663 13.9982 0.000735663C13.4573 0.000735663 12.9333 0.201948 12.5157 0.56996L0.211684 11.4211C0.15262 11.4733 0.103754 11.5376 0.0678782 11.6101C0.0320021 11.6826 0.00981906 11.762 0.00259668 11.8436C-0.0046257 11.9253 0.0032541 12.0077 0.0257858 12.0862C0.0483176 12.1646 0.0850596 12.2375 0.133913 12.3007L1.3734 13.9143C1.42212 13.9778 1.48205 14.0303 1.54975 14.0689C1.61745 14.1075 1.69159 14.1314 1.76794 14.1393C1.84429 14.1472 1.92134 14.1389 1.99468 14.1148C2.06802 14.0908 2.13621 14.0515 2.19535 13.9992L13.6288 3.91477C13.7341 3.82385 13.8653 3.77427 14.0006 3.77427C14.1359 3.77427 14.2671 3.82385 14.3725 3.91477L25.8064 13.9992C25.8654 14.0515 25.9335 14.0908 26.0067 14.1149C26.08 14.1391 26.1569 14.1475 26.2332 14.1398C26.3095 14.132 26.3836 14.1083 26.4513 14.0699C26.5191 14.0315 26.579 13.9791 26.6278 13.9159L27.8673 12.3023C27.9161 12.2387 27.9527 12.1654 27.975 12.0867C27.9973 12.0079 28.0048 11.9252 27.9971 11.8433C27.9894 11.7614 27.9667 11.6819 27.9302 11.6095C27.8938 11.537 27.8443 11.473 27.7847 11.4211Z" fill="#F8471B"/>
</svg>
