<svg width="40" height="40" viewBox="0 0 40 40" fill="none" xmlns="http://www.w3.org/2000/svg">
<path fill-rule="evenodd" clip-rule="evenodd" d="M20 37.5C24.6413 37.5 29.0925 35.6563 32.3744 32.3744C35.6563 29.0925 37.5 24.6413 37.5 20C37.5 15.3587 35.6563 10.9075 32.3744 7.62563C29.0925 4.34374 24.6413 2.5 20 2.5C15.3587 2.5 10.9075 4.34374 7.62563 7.62563C4.34374 10.9075 2.5 15.3587 2.5 20C2.5 24.6413 4.34374 29.0925 7.62563 32.3744C10.9075 35.6563 15.3587 37.5 20 37.5ZM40 20C40 25.3043 37.8929 30.3914 34.1421 34.1421C30.3914 37.8929 25.3043 40 20 40C14.6957 40 9.60859 37.8929 5.85786 34.1421C2.10714 30.3914 0 25.3043 0 20C0 14.6957 2.10714 9.60859 5.85786 5.85786C9.60859 2.10714 14.6957 0 20 0C25.3043 0 30.3914 2.10714 34.1421 5.85786C37.8929 9.60859 40 14.6957 40 20Z" fill="#F8471B"/>
<path fill-rule="evenodd" clip-rule="evenodd" d="M18.75 7.5C19.0815 7.5 19.3995 7.6317 19.6339 7.86612C19.8683 8.10054 20 8.41848 20 8.75V21.775L28.12 26.415C28.3995 26.5836 28.6019 26.8548 28.6841 27.1707C28.7662 27.4866 28.7216 27.8221 28.5596 28.1055C28.3977 28.3889 28.1313 28.5977 27.8175 28.6873C27.5036 28.7769 27.1671 28.7402 26.88 28.585L18.13 23.585C17.9387 23.4757 17.7796 23.3178 17.669 23.1273C17.5584 22.9367 17.5001 22.7203 17.5 22.5V8.75C17.5 8.41848 17.6317 8.10054 17.8661 7.86612C18.1005 7.6317 18.4185 7.5 18.75 7.5Z" fill="#F8471B"/>
</svg>
