<svg width="31" height="32" viewBox="0 0 31 32" fill="none" xmlns="http://www.w3.org/2000/svg">
<path fill-rule="evenodd" clip-rule="evenodd" d="M21.4578 4.90332V8.51256L23.7715 6.22208V1.96503L22.6147 0.808228H1.79212L0.635315 1.96503V3.08945L0.589043 3.12184V26.9289L1.42194 27.9932L12.99 31.9726L14.4707 30.8852V28.5716H22.6147L23.7715 27.4148V23.2271L21.4578 20.9135V26.258H14.4707V7.07812L13.7072 6.01386L5.29956 3.12184H21.4578V4.90332ZM12.1571 29.2194L2.90266 26.1192V4.78764L12.1571 7.88789V29.2194ZM27.2419 15.8004H15.7432V13.4868H27.1493L23.4475 9.78505L25.0902 8.16552L30.8048 13.857V15.4997L25.0439 21.2374L23.4244 19.6179L27.2419 15.8004Z" fill="white"/>
</svg>
