<svg width="40" height="42" viewBox="0 0 40 42" fill="none" xmlns="http://www.w3.org/2000/svg">
<path d="M37.3275 29.5707C35.5261 33.198 32.6295 36.1419 29.0627 37.9699C25.496 39.798 21.4475 40.4136 17.5116 39.7266C13.5757 39.0394 9.96009 37.0858 7.19576 34.1526C4.43141 31.2192 2.66407 27.4613 2.15333 23.4301C1.64259 19.3989 2.41538 15.3073 4.35817 11.7563C6.30097 8.20525 9.31139 5.38189 12.9472 3.70098C16.583 2.02005 20.6527 1.57013 24.5583 2.41734C28.4638 3.26453 31.6647 5.19069 34.3112 8.23436C34.6316 8.57237 35.8637 9.93644 36.8878 11.9948" stroke="#F8471B" stroke-width="2.5" stroke-linecap="round" stroke-linejoin="round"/>
<path d="M25.7702 13.0147L36.4109 14.929L38.2919 4.09854" stroke="#F8471B" stroke-width="2.5" stroke-linecap="round" stroke-linejoin="round"/>
</svg>
