<svg width="27" height="28" viewBox="0 0 27 28" fill="none" xmlns="http://www.w3.org/2000/svg">
<path d="M3.73911 0C1.67405 0 0 1.79086 0 4V24C0 26.2092 1.67405 28 3.73911 28H22.4346C24.4997 28 26.1737 26.2092 26.1737 24V4C26.1737 1.79086 24.4997 0 22.4346 0H3.73911ZM8.41299 8.5C8.41299 9.32842 7.78521 10 7.01082 10C6.23644 10 5.60866 9.32842 5.60866 8.5C5.60866 7.67158 6.23644 7 7.01082 7C7.78521 7 8.41299 7.67158 8.41299 8.5ZM7.01082 16C6.23644 16 5.60866 15.3284 5.60866 14.5C5.60866 13.6716 6.23644 13 7.01082 13C7.78521 13 8.41299 13.6716 8.41299 14.5C8.41299 15.3284 7.78521 16 7.01082 16ZM8.41299 20.5C8.41299 21.3284 7.78521 22 7.01082 22C6.23644 22 5.60866 21.3284 5.60866 20.5C5.60866 19.6716 6.23644 19 7.01082 19C7.78521 19 8.41299 19.6716 8.41299 20.5ZM12.1521 8H19.6303C20.1465 8 20.5651 8.44772 20.5651 9C20.5651 9.55228 20.1465 10 19.6303 10H12.1521C11.6358 10 11.2173 9.55228 11.2173 9C11.2173 8.44772 11.6358 8 12.1521 8ZM11.2173 15C11.2173 14.4478 11.6358 14 12.1521 14H19.6303C20.1465 14 20.5651 14.4478 20.5651 15C20.5651 15.5522 20.1465 16 19.6303 16H12.1521C11.6358 16 11.2173 15.5522 11.2173 15ZM12.1521 20H19.6303C20.1465 20 20.5651 20.4478 20.5651 21C20.5651 21.5522 20.1465 22 19.6303 22H12.1521C11.6358 22 11.2173 21.5522 11.2173 21C11.2173 20.4478 11.6358 20 12.1521 20Z" fill="#9A9696"/>
</svg>
