<svg width="28" height="29" viewBox="0 0 28 29" fill="none" xmlns="http://www.w3.org/2000/svg">
<path d="M25 3.59432H22V0.673935C22 0.301754 21.6642 0 21.25 0H18.75C18.3358 0 18 0.301754 18 0.673935V3.59432H10V0.673935C10 0.301754 9.66419 0 9.25 0H6.75C6.33581 0 6 0.301754 6 0.673935V3.59432H3C1.34312 3.59432 0 4.80123 0 6.29006V26.0588C0 27.5477 1.34312 28.7546 3 28.7546H25C26.6569 28.7546 28 27.5477 28 26.0588V6.29006C28 4.80123 26.6569 3.59432 25 3.59432ZM24.625 26.0588H3.375C3.27554 26.0588 3.18016 26.0233 3.10983 25.9601C3.03951 25.8969 3 25.8112 3 25.7219V8.9858H25V25.7219C25 25.8112 24.9605 25.8969 24.8902 25.9601C24.8198 26.0233 24.7245 26.0588 24.625 26.0588ZM21.3219 14.7901L12.4276 22.7183C12.1336 22.9804 11.6587 22.9787 11.3669 22.7145L6.67375 18.4631C6.38206 18.1989 6.38394 17.7722 6.678 17.51L8.09794 16.2444C8.392 15.9823 8.86687 15.9839 9.15856 16.2482L11.9151 18.7452L18.8571 12.5573C19.1511 12.2952 19.626 12.2969 19.9177 12.5611L21.3263 13.837C21.6179 14.1013 21.616 14.528 21.3219 14.7901Z" fill="#9A9696"/>
</svg>
